HIERARCHY
ROOT Hips
{
    OFFSET 0.000000 97.120003 0.000000
    CHANNELS 6 Xposition Yposition Zposition Yrotation Xrotation Zrotation
    JOINT RightUpLeg
    {
        OFFSET -11.000000 -0.000000 0.000000
        CHANNELS 3 Yrotation Xrotation Zrotation
        JOINT RightLeg
        {
            OFFSET 0.000000 -45.062000 0.000000
            CHANNELS 3 Yrotation Xrotation Zrotation
            JOINT RightFoot
            {
                OFFSET 0.000000 -42.057999 0.000000
                CHANNELS 3 Yrotation Xrotation Zrotation
                End Site
                {
                    OFFSET 0.000000 -10.000000 15.120000
                }
            }
        }
    }
    JOINT LeftUpLeg
    {
        OFFSET 11.000000 -0.000000 0.000000
        CHANNELS 3 Yrotation Xrotation Zrotation
        JOINT LeftLeg
        {
            OFFSET 0.000000 -45.062000 0.000000
            CHANNELS 3 Yrotation Xrotation Zrotation
            JOINT LeftFoot
            {
                OFFSET 0.000000 -42.057999 0.000000
                CHANNELS 3 Yrotation Xrotation Zrotation
                End Site
                {
                    OFFSET 0.000000 -10.000000 15.120000
                }
            }
        }
    }
    JOINT Spine
    {
        OFFSET 0.000000 8.120000 0.000000
        CHANNELS 3 Yrotation Xrotation Zrotation
        JOINT Spine1
        {
            OFFSET 0.000000 17.980000 0.000000
            CHANNELS 3 Yrotation Xrotation Zrotation
            JOINT Spine2
            {
                OFFSET 0.000000 12.760000 0.000000
                CHANNELS 3 Yrotation Xrotation Zrotation
                JOINT Neck
                {
                    OFFSET 0.000000 19.139999 0.000000
                    CHANNELS 3 Yrotation Xrotation Zrotation
                    JOINT Neck1
                    {
                        OFFSET 0.000000 4.250000 0.000000
                        CHANNELS 3 Yrotation Xrotation Zrotation
                        JOINT Head
                        {
                            OFFSET 0.000000 4.250000 0.000000
                            CHANNELS 3 Yrotation Xrotation Zrotation
                            End Site
                            {
                                OFFSET 0.000000 19.120001 0.000000
                            }
                        }
                    }
                }
                JOINT RightShoulder
                {
                    OFFSET -2.900000 13.340000 0.000000
                    CHANNELS 3 Yrotation Xrotation Zrotation
                    JOINT RightArm
                    {
                        OFFSET -16.100000 0.000000 0.000000
                        CHANNELS 3 Yrotation Xrotation Zrotation
                        JOINT RightForeArm
                        {
                            OFFSET -28.000000 0.000000 0.000000
                            CHANNELS 3 Yrotation Xrotation Zrotation
                            JOINT RightHand
                            {
                                OFFSET -26.000000 0.000000 0.000000
                                CHANNELS 3 Yrotation Xrotation Zrotation
                                JOINT RightHandThumb1
                                {
                                    OFFSET -1.937000 -0.484000 2.518000
                                    CHANNELS 3 Yrotation Xrotation Zrotation
                                    JOINT RightHandThumb2
                                    {
                                        OFFSET -3.872000 0.000000 0.000000
                                        CHANNELS 3 Yrotation Xrotation Zrotation
                                        JOINT RightHandThumb3
                                        {
                                            OFFSET -2.690000 0.000000 0.000000
                                            CHANNELS 3 Yrotation Xrotation Zrotation
                                            End Site
                                            {
                                                OFFSET -2.537000 0.000000 0.000000
                                            }
                                        }
                                    }
                                }
                                JOINT RightInHandIndex
                                {
                                    OFFSET -3.389000 0.535000 2.080000
                                    CHANNELS 3 Yrotation Xrotation Zrotation
                                    JOINT RightHandIndex1
                                    {
                                        OFFSET -5.485000 -0.096000 1.051000
                                        CHANNELS 3 Yrotation Xrotation Zrotation
                                        JOINT RightHandIndex2
                                        {
                                            OFFSET -3.806000 0.000000 0.000000
                                            CHANNELS 3 Yrotation Xrotation Zrotation
                                            JOINT RightHandIndex3
                                            {
                                                OFFSET -2.158000 0.000000 0.000000
                                                CHANNELS 3 Yrotation Xrotation Zrotation
                                                End Site
                                                {
                                                    OFFSET -1.898000 0.000000 0.000000
                                                }
                                            }
                                        }
                                    }
                                }
                                JOINT RightInHandMiddle
                                {
                                    OFFSET -3.556000 0.544000 0.796000
                                    CHANNELS 3 Yrotation Xrotation Zrotation
                                    JOINT RightHandMiddle1
                                    {
                                        OFFSET -5.441000 -0.088000 0.330000
                                        CHANNELS 3 Yrotation Xrotation Zrotation
                                        JOINT RightHandMiddle2
                                        {
                                            OFFSET -4.153000 0.000000 0.000000
                                            CHANNELS 3 Yrotation Xrotation Zrotation
                                            JOINT RightHandMiddle3
                                            {
                                                OFFSET -2.603000 0.000000 0.000000
                                                CHANNELS 3 Yrotation Xrotation Zrotation
                                                End Site
                                                {
                                                    OFFSET -2.076000 0.000000 0.000000
                                                }
                                            }
                                        }
                                    }
                                }
                                JOINT RightInHandRing
                                {
                                    OFFSET -3.539000 0.566000 -0.136000
                                    CHANNELS 3 Yrotation Xrotation Zrotation
                                    JOINT RightHandRing1
                                    {
                                        OFFSET -4.873000 -0.023000 -0.504000
                                        CHANNELS 3 Yrotation Xrotation Zrotation
                                        JOINT RightHandRing2
                                        {
                                            OFFSET -3.619000 0.000000 0.000000
                                            CHANNELS 3 Yrotation Xrotation Zrotation
                                            JOINT RightHandRing3
                                            {
                                                OFFSET -2.511000 0.000000 0.000000
                                                CHANNELS 3 Yrotation Xrotation Zrotation
                                                End Site
                                                {
                                                    OFFSET -1.952000 0.000000 0.000000
                                                }
                                            }
                                        }
                                    }
                                }
                                JOINT RightInHandPinky
                                {
                                    OFFSET -3.324000 0.494000 -1.264000
                                    CHANNELS 3 Yrotation Xrotation Zrotation
                                    JOINT RightHandPinky1
                                    {
                                        OFFSET -4.354000 -0.023000 -1.147000
                                        CHANNELS 3 Yrotation Xrotation Zrotation
                                        JOINT RightHandPinky2
                                        {
                                            OFFSET -2.898000 0.000000 0.000000
                                            CHANNELS 3 Yrotation Xrotation Zrotation
                                            JOINT RightHandPinky3
                                            {
                                                OFFSET -1.831000 0.000000 0.000000
                                                CHANNELS 3 Yrotation Xrotation Zrotation
                                                End Site
                                                {
                                                    OFFSET -1.730000 0.000000 0.000000
                                                }
                                            }
                                        }
                                    }
                                }
                            }
                        }
                    }
                }
                JOINT LeftShoulder
                {
                    OFFSET 2.900000 13.340000 0.000000
                    CHANNELS 3 Yrotation Xrotation Zrotation
                    JOINT LeftArm
                    {
                        OFFSET 16.100000 0.000000 0.000000
                        CHANNELS 3 Yrotation Xrotation Zrotation
                        JOINT LeftForeArm
                        {
                            OFFSET 28.000000 0.000000 0.000000
                            CHANNELS 3 Yrotation Xrotation Zrotation
                            JOINT LeftHand
                            {
                                OFFSET 26.000000 0.000000 0.000000
                                CHANNELS 3 Yrotation Xrotation Zrotation
                                JOINT LeftHandThumb1
                                {
                                    OFFSET 1.937000 -0.484000 2.518000
                                    CHANNELS 3 Yrotation Xrotation Zrotation
                                    JOINT LeftHandThumb2
                                    {
                                        OFFSET 3.872000 0.000000 0.000000
                                        CHANNELS 3 Yrotation Xrotation Zrotation
                                        JOINT LeftHandThumb3
                                        {
                                            OFFSET 2.690000 0.000000 0.000000
                                            CHANNELS 3 Yrotation Xrotation Zrotation
                                            End Site
                                            {
                                                OFFSET 2.537000 0.000000 0.000000
                                            }
                                        }
                                    }
                                }
                                JOINT LeftInHandIndex
                                {
                                    OFFSET 3.389000 0.535000 2.080000
                                    CHANNELS 3 Yrotation Xrotation Zrotation
                                    JOINT LeftHandIndex1
                                    {
                                        OFFSET 5.485000 -0.096000 1.051000
                                        CHANNELS 3 Yrotation Xrotation Zrotation
                                        JOINT LeftHandIndex2
                                        {
                                            OFFSET 3.806000 0.000000 0.000000
                                            CHANNELS 3 Yrotation Xrotation Zrotation
                                            JOINT LeftHandIndex3
                                            {
                                                OFFSET 2.158000 0.000000 0.000000
                                                CHANNELS 3 Yrotation Xrotation Zrotation
                                                End Site
                                                {
                                                    OFFSET 1.898000 0.000000 0.000000
                                                }
                                            }
                                        }
                                    }
                                }
                                JOINT LeftInHandMiddle
                                {
                                    OFFSET 3.556000 0.544000 0.796000
                                    CHANNELS 3 Yrotation Xrotation Zrotation
                                    JOINT LeftHandMiddle1
                                    {
                                        OFFSET 5.441000 -0.088000 0.330000
                                        CHANNELS 3 Yrotation Xrotation Zrotation
                                        JOINT LeftHandMiddle2
                                        {
                                            OFFSET 4.153000 0.000000 0.000000
                                            CHANNELS 3 Yrotation Xrotation Zrotation
                                            JOINT LeftHandMiddle3
                                            {
                                                OFFSET 2.603000 0.000000 0.000000
                                                CHANNELS 3 Yrotation Xrotation Zrotation
                                                End Site
                                                {
                                                    OFFSET 2.076000 0.000000 0.000000
                                                }
                                            }
                                        }
                                    }
                                }
                                JOINT LeftInHandRing
                                {
                                    OFFSET 3.539000 0.566000 -0.136000
                                    CHANNELS 3 Yrotation Xrotation Zrotation
                                    JOINT LeftHandRing1
                                    {
                                        OFFSET 4.873000 -0.023000 -0.504000
                                        CHANNELS 3 Yrotation Xrotation Zrotation
                                        JOINT LeftHandRing2
                                        {
                                            OFFSET 3.619000 0.000000 0.000000
                                            CHANNELS 3 Yrotation Xrotation Zrotation
                                            JOINT LeftHandRing3
                                            {
                                                OFFSET 2.511000 0.000000 0.000000
                                                CHANNELS 3 Yrotation Xrotation Zrotation
                                                End Site
                                                {
                                                    OFFSET 1.952000 0.000000 0.000000
                                                }
                                            }
                                        }
                                    }
                                }
                                JOINT LeftInHandPinky
                                {
                                    OFFSET 3.324000 0.494000 -1.264000
                                    CHANNELS 3 Yrotation Xrotation Zrotation
                                    JOINT LeftHandPinky1
                                    {
                                        OFFSET 4.354000 -0.023000 -1.147000
                                        CHANNELS 3 Yrotation Xrotation Zrotation
                                        JOINT LeftHandPinky2
                                        {
                                            OFFSET 2.898000 0.000000 0.000000
                                            CHANNELS 3 Yrotation Xrotation Zrotation
                                            JOINT LeftHandPinky3
                                            {
                                                OFFSET 1.831000 0.000000 0.000000
                                                CHANNELS 3 Yrotation Xrotation Zrotation
                                                End Site
                                                {
                                                    OFFSET 1.730000 0.000000 0.000000
                                                }
                                            }
                                        }
                                    }
                                }
                            }
                        }
                    }
                }
            }
        }
    }
}
MOTION
Frames: 4
Frame Time: 0.011111
-21.778635 189.411545 132.096420 8.962581 50.387772 0.935384 24.039848 -104.090691 -38.109188 127.159912 101.939987 134.722626 171.263855 -152.403091 -175.697144 172.640015 -75.662025 -163.377472 66.842659 78.098312 41.014217 179.601608 -146.464523 -170.579758 178.384705 159.767319 -179.025833 179.379562 160.285492 -177.085968 175.179169 165.533646 -177.214828 179.964386 -169.730453 -177.098648 0.000442 -11.819128 2.970659 173.099579 -171.706680 -177.029449 26.679262 -10.781731 -3.040750 66.858559 -35.935440 21.905308 163.252533 170.703186 169.394318 176.132690 159.038025 148.560135 47.070393 46.731392 -6.769634 0.000126 -0.000137 0.090589 0.000087 -0.000094 0.060331 0.000000 -0.000000 0.000000 14.986695 0.000498 -6.069362 0.000000 -0.000000 0.000000 0.000000 -0.000000 0.000000 0.000000 -0.000000 0.000000 179.993988 179.999695 -177.615433 179.993973 -179.999985 -177.615433 179.996002 -179.999771 -178.411896 0.000000 -0.000000 0.000000 169.990265 179.999466 176.486084 180.000000 -179.999985 180.000000 180.000000 -179.999985 180.000000 0.000000 -0.000000 0.000000 159.999481 179.999969 -173.713959 179.999207 -179.999969 -170.570923 179.999481 -179.999863 -173.720245 165.301193 -171.074265 -172.536591 135.552979 -138.254944 157.450897 7.392500 9.052984 13.973991 6.388635 17.192261 19.990025 107.656990 127.725716 154.425186 0.000852 0.000167 -1.270090 0.000570 0.000100 -0.845876 0.000000 -0.000000 0.000000 165.010284 -179.990143 168.031342 0.006417 -0.009707 -9.792536 0.003206 -0.007492 -6.854783 0.000000 -0.000000 0.000000 0.020414 -0.026931 -8.260987 0.015207 -0.030194 -8.260981 0.006463 -0.021575 -5.501812 0.000000 -0.000000 0.000000 10.004075 -0.007132 -9.103613 0.002815 -0.007734 -9.103604 0.000983 -0.005379 -6.063011 0.000000 -0.000000 0.000000 19.999779 0.000638 -19.318750 180.000000 179.998993 151.021896 0.000330 0.000586 -19.299438
-21.611864 190.179581 132.468307 8.673714 49.586014 0.855854 29.189632 -102.722298 -42.794289 131.282227 103.174118 138.227737 171.270599 -152.804550 -175.492264 170.663406 -77.295341 -161.903854 63.023911 77.169197 37.763851 0.238560 -33.599007 8.789667 178.362350 159.860229 -179.090103 179.377380 160.360779 -177.157196 175.220444 165.592224 -177.303055 179.967545 -169.765503 -177.199310 179.999924 -168.205475 -177.130112 173.152832 -171.704773 -177.104950 26.306030 -10.714918 -2.692268 66.637016 -35.498898 22.093031 163.863724 171.223373 169.628021 176.242599 158.981369 149.796478 46.379337 46.950142 -7.452875 179.999878 179.999908 -179.966949 179.999924 179.999939 -179.977997 0.000000 -0.000002 0.000000 14.986200 -0.000063 -4.083437 0.000000 -0.000000 0.000000 0.000000 -0.000000 0.000000 0.000000 -0.000002 0.000000 179.992691 179.999985 -176.677750 179.992706 -179.999481 -176.677765 179.995178 -179.999329 -177.787384 0.000000 -0.000002 0.000000 169.992706 179.999969 178.717072 179.995575 179.999954 179.552429 179.997055 179.999954 179.701920 0.000000 -0.000002 0.000000 159.997772 179.999985 -173.770508 179.996674 -179.999649 -170.655777 179.997864 -179.999390 -173.776764 165.382874 -171.142776 -172.761887 135.381531 -138.444565 156.954239 6.777342 8.347777 13.465560 5.954972 17.823286 18.539423 110.158020 127.731094 157.122986 179.999344 -179.999817 178.595062 179.999573 -179.999878 179.064316 180.000000 179.999985 -180.000000 165.010437 -179.989883 166.954117 0.006311 -0.010078 -10.673916 0.002955 -0.007779 -7.471738 180.000000 179.999985 -180.000000 0.007760 -0.009356 -12.364285 0.005434 -0.010876 -12.364279 0.001887 -0.007880 -8.234617 180.000000 179.999985 -180.000000 10.006084 -0.009194 -9.765557 0.004301 -0.010141 -9.765556 0.001598 -0.007175 -6.503853 180.000000 179.999985 -180.000000 20.000645 -0.001312 -19.119299 0.000244 -0.002194 -28.678919 179.999451 -179.998657 160.899811
-21.428207 190.944733 132.831711 8.419847 48.755341 0.786189 35.171566 -101.361023 -48.276329 134.386902 104.513710 140.777115 171.244461 -153.233261 -175.251556 168.206940 -78.986107 -159.932373 61.111145 75.820419 36.086117 0.169300 -33.573414 8.480903 178.323792 159.956985 -179.161102 179.367477 160.441315 -177.253250 175.238800 165.653198 -177.434647 179.970947 -169.818161 -177.184479 0.000036 -11.747848 2.888388 173.179016 -171.740112 -177.102432 25.922966 -10.659973 -2.364207 66.348022 -35.062378 22.371899 164.606644 171.809418 169.883209 176.374939 158.976013 150.832886 46.053993 46.932934 -7.741846 179.999771 179.999863 -179.951401 179.999847 179.999924 -179.967636 0.000002 -0.000003 -0.000000 14.991806 -0.000359 -1.143625 179.994904 -179.999802 179.529388 179.996429 -179.999847 179.670578 0.000002 -0.000003 -0.000000 179.992386 -179.999695 -175.351837 179.992447 -179.998947 -175.351852 179.995056 -179.998825 -176.904327 0.000002 -0.000003 -0.000000 169.994690 -179.999786 -179.645294 179.994705 -179.999710 -179.645279 179.996460 -179.999741 -179.763763 0.000002 -0.000003 -0.000000 159.994247 -179.999771 -173.608917 179.991486 -179.998550 -170.413391 179.994598 -179.998032 -173.615311 165.468018 -171.285797 -172.849777 135.259109 -138.766235 156.410034 6.030599 7.519057 12.887789 5.544196 18.343834 17.378263 112.464676 127.643303 159.919724 179.999496 -179.999847 178.661758 179.999680 -179.999908 179.108734 0.000002 0.000003 -0.000002 165.011093 -179.990738 165.672256 0.006797 -0.009680 -11.722675 0.003216 -0.007627 -8.205874 0.000002 0.000003 -0.000002 0.008725 -0.008481 -13.557217 0.006364 -0.010373 -13.557217 0.002408 -0.007740 -9.029105 0.000002 0.000003 -0.000002 10.007775 -0.008873 -10.901705 0.005803 -0.010270 -10.901699 0.002410 -0.007478 -7.260527 0.000002 0.000003 -0.000002 20.001316 -0.001872 -19.242756 0.000922 -0.003310 -28.864122 179.999466 -179.997772 160.776505
-21.280334 191.705490 133.267181 8.173289 47.896641 0.724227 42.643890 -100.043388 -55.234669 136.736145 105.951172 142.627625 171.258545 -153.675766 -175.017624 164.390915 -80.668266 -156.554886 57.550137 74.962257 33.180264 0.944721 -33.679920 7.811498 178.285034 160.067795 -179.232513 179.353210 160.536682 -177.332520 175.226334 165.723114 -177.550644 179.973907 -169.897842 -177.200317 0.000034 -11.668077 2.874800 173.220520 -171.793076 -177.126633 25.538166 -10.573887 -1.994804 65.990387 -34.600288 22.684484 165.488373 172.416138 170.130066 176.512299 158.921799 151.718567 46.066307 46.714386 -7.709039 179.999847 179.999954 -179.891586 179.999893 179.999969 -179.927780 0.000003 -0.000000 0.000000 14.992696 -0.000492 0.608527 179.994049 -179.999451 -179.502106 179.995834 -179.999527 -179.651474 0.000003 -0.000000 0.000000 179.992249 -179.999512 -173.837677 179.992371 -179.998566 -173.837662 179.995071 -179.998444 -175.895889 0.000003 -0.000000 0.000000 169.995316 -179.999725 -178.507843 179.995331 -179.999557 -178.507843 179.996902 -179.999588 -179.006226 0.000003 -0.000000 0.000000 159.997650 -179.999847 -172.083618 179.996506 -179.999298 -168.125427 179.997833 -179.999039 -172.091537 165.550720 -171.464203 -172.984314 135.319382 -138.804474 155.584229 5.266395 6.950204 12.430791 5.103950 18.520624 16.315212 114.061035 127.097771 161.413116 179.997772 179.999908 178.578766 179.998520 179.999908 179.053482 180.000000 -180.000000 -180.000000 165.009354 -179.992203 164.269348 0.005545 -0.008283 -12.870544 0.002425 -0.006546 -9.009379 180.000000 -180.000000 -180.000000 0.008263 -0.007736 -14.805530 0.005865 -0.009674 -14.805533 0.002059 -0.007256 -9.860485 180.000000 -180.000000 -180.000000 10.007495 -0.008036 -12.216292 0.005504 -0.009516 -12.216295 0.002144 -0.006993 -8.136056 180.000000 -180.000000 -180.000000 20.001225 -0.001584 -19.529539 0.000930 -0.002870 -29.294340 179.999619 -179.998032 160.489975
